<?xml version="1.0" encoding="utf-8"?>
<!-- Generator: Adobe Illustrator 20.0.0, SVG Export Plug-In . SVG Version: 6.00 Build 0)  -->
<svg version="1.1" id="Layer_1" xmlns="http://www.w3.org/2000/svg" xmlns:xlink="http://www.w3.org/1999/xlink" x="0px" y="0px"
	 viewBox="0 0 265.7 31.8" style="enable-background:new 0 0 265.7 31.8;" xml:space="preserve">
<style type="text/css">
	.st0{fill-rule:evenodd;clip-rule:evenodd;}
	.st1{fill-rule:evenodd;clip-rule:evenodd;fill:#E6007F;}
</style>
<g>
	<path d="M114.6,13.1l3.5,12.7h5.3l6-18.7h-5.6l-3.3,13.2l-3.4-13.2h-5l-3.4,13.2l-3.3-13.2h-5.6l6,18.7h5.3L114.6,13.1L114.6,13.1z
		 M129.2,7.1v18.7h5.5V7.1H129.2L129.2,7.1z M129.2,4.4h5.5V0h-5.5V4.4L129.2,4.4z M141.7,7.1h-5.3v18.7h5.5V15.3
		c0-0.8,0.1-5.1,3.7-5.1c2.9,0,3.1,3,3.1,4.8v10.8h5.5V14.1c0-7-3.7-7.7-6.2-7.7c-2.5,0-4.9,0.9-6.4,3V7.1L141.7,7.1z M169.1,20.4
		c-0.5,1.7-2.1,2.4-3.7,2.4c-3.6,0-4.4-3.1-4.4-4.9h14.2l0-1c-0.1-2.3-0.5-10.4-9.5-10.4c-6,0-10.4,3.5-10.4,10
		c0,9.6,7.5,10.1,9.9,10.1c3.4,0,8.1-0.8,9.6-6.1H169.1L169.1,20.4z M161,14.7c0.1-1.9,1.3-4.5,4.5-4.5c1.3,0,3.8,0.5,3.9,4.5H161
		L161,14.7z M186.8,7.1h-5.3v18.7h5.5V15.3c0-0.8,0.1-5.1,3.7-5.1c2.9,0,3.1,3,3.1,4.8v10.8h5.5V14.1c0-7-3.7-7.7-6.2-7.7
		c-2.5,0-4.9,0.9-6.4,3V7.1L186.8,7.1z M214.3,20.4c-0.5,1.7-2.1,2.4-3.7,2.4c-3.6,0-4.4-3.1-4.4-4.9h14.2l0-1
		c-0.1-2.3-0.5-10.4-9.5-10.4c-6,0-10.4,3.5-10.4,10c0,9.6,7.5,10.1,9.9,10.1c3.4,0,8.1-0.8,9.6-6.1H214.3L214.3,20.4z M206.1,14.7
		c0.1-1.9,1.3-4.5,4.5-4.5c1.3,0,3.8,0.5,3.9,4.5H206.1L206.1,14.7z M233.9,13.1l3.5,12.7h5.3l6-18.7h-5.6l-3.3,13.2l-3.4-13.2h-5
		L228,20.3l-3.3-13.2H219l6,18.7h5.3L233.9,13.1L233.9,13.1z M247.7,19.9c0.1,3.9,3.5,6.6,9.2,6.6c7.4,0,8.8-3.5,8.8-6.4
		c0-4.7-4.1-5.2-7.2-5.7c-2-0.3-4.6-0.4-4.6-2.7c0-1.5,2.2-1.6,3.1-1.6c0.7,0,2.7-0.1,2.9,2.1h5c-0.1-2.5-1.6-5.9-8.3-5.9
		c-7.8,0-8.5,4.1-8.5,5.8c0,4.5,3.8,5.4,6.5,5.8c2.8,0.4,5.3,0.7,5.3,2.8c0,1.4-1.6,2-2.9,2c-2.2,0-3.6-0.8-3.7-2.8H247.7
		L247.7,19.9z"/>
</g>
<path d="M84.3,10.6L84.3,10.6c1.7,0,3.7,0.9,4,3.7h-4h-4C80.6,12,81.9,10.6,84.3,10.6 M93.5,17.3v-1.7c0-6-3.6-8.7-9.1-8.7h-0.1
	c-8.4,0.1-9.2,6.7-9.2,8.9c0,7,4,9.5,9.2,9.6c0.2,0,0.3,0,0.5,0c3.3,0,7.2-1.4,8.6-5.6h-5.2c-0.4,1.3-1.8,1.9-3.3,1.9h-0.5
	c-3.7-0.2-4-3-4-4.3h4H93.5z"/>
<rect x="68.7" y="1.1" class="st0" width="5.1" height="23.8"/>
<path d="M57.7,21.5h-0.1c-3.3,0-4.2-3.2-4.2-5.3c0-2.8,1.1-5.4,4.4-5.4c3.5,0,4.4,2.8,4.4,5.6C62.1,19,60.9,21.4,57.7,21.5
	 M59.2,6.8c-0.6,0-1,0-1.5,0.1c-2.4,0.4-3.5,1.8-4.3,2.9h-0.1V7.3h-4.9v24.5h5.1v-9.2l0.1,0c0.5,0.8,1.5,2.2,4.1,2.6
	c0.4,0.1,0.9,0.1,1.4,0.1c5.8,0,8.2-4.6,8.2-9.4C67.3,9.9,63.5,6.8,59.2,6.8"/>
<path class="st0" d="M19.1,7.3v17.6h5.1V14.1c0-1.9,0.8-3.4,3.2-3.4c2.6,0,3.1,2.1,3.1,3.6v10.5h5.1V14.3c0-2.1,0.9-3.6,3.5-3.6
	c1.5,0,2.8,0.9,2.8,3.5v10.7H47V12.7c0-3.8-2.9-5.8-6.7-5.8c-3.1,0-4.5,1.9-5.2,2.8c-1.4-1.8-2.6-2.8-5.4-2.8c-3.4,0-4.8,1.9-5.5,3
	h-0.1V7.3H19.1z"/>
<rect x="19.1" y="0.1" class="st1" width="4.7" height="4.3"/>
<path class="st0" d="M17.2,12.8C16.8,7.9,12.3,7,8.5,7c-6.1,0-7.8,3.3-7.8,5.9c0,6.6,12.1,4.4,12.1,7.3c0,0.6-0.6,1.8-3.3,1.8
	c-3.2,0-4.2-1.1-4.2-2.6H0c0,4.7,4.9,6.1,9.3,6.1c3,0,8.5-0.9,8.5-6c0-6.5-12.1-4.4-12.1-7.2c0-0.8,0.4-1.7,3.1-1.7
	c2.8,0,3.2,1.2,3.4,2.3H17.2z"/>
</svg>
